<mxfile host="app.diagrams.net" modified="2024-06-08T11:03:57.386Z" agent="Mozilla/5.0 (Windows NT 10.0; Win64; x64) AppleWebKit/537.36 (KHTML, like Gecko) Chrome/124.0.0.0 Safari/537.36" version="24.5.2" etag="LLnIYW5Qr9EzcG_uUxv-" type="github">
  <diagram name="Page-1" id="T56wcgvE9HibvvRjGMIK">
    <mxGraphModel>
      <root>
        <mxCell id="0" />
        <mxCell id="1" parent="0" />
      </root>
    </mxGraphModel>
  </diagram>
</mxfile>
